# xmcd
# 
# Track frame offsets:
#     183
#     60775
#     92003
#     128560
#     178725
#     232518
# 
# Disc length: 3793
# 
# Revision: 15
# Processed by: cddbd v1.5.2PL0 Copyright (c) Steve Scherf et al.
# Submitted via: fre:ac v1.0.17
# 
DISCID=370ecf06
DTITLE=Sergey Rachmaninov - Klavierkonzert Nr. 1 und 2
DYEAR=1995
DGENRE=Klassik
TTITLE0=Klavierkonzert Nr. 1 fis-Moll op. 1  - I. Vivace
TTITLE1=Klavierkonzert Nr. 1 fis-Moll op. 1  - II. Andante
TTITLE2=Klavierkonzert Nr. 1 fis-Moll op. 1  - III. Allegro vivace
TTITLE3=Klavierkonzert Nr. 2 c-Moll op. 18 - I. Moderato
TTITLE4=Klavierkonzert Nr. 2 c-Moll op. 18 - II. Adagio sostenuta
TTITLE5=Klavierkonzert Nr. 2 c-Moll op. 18 - III. Allegro scherzando
EXTD=
EXTT0=
EXTT1=
EXTT2=
EXTT3=
EXTT4=
EXTT5=
PLAYORDER=
